<?xml version="1.0" standalone="no"?>
<!DOCTYPE svg PUBLIC "-//W3C//DTD SVG 20010904//EN"
 "http://www.w3.org/TR/2001/REC-SVG-20010904/DTD/svg10.dtd">
<svg version="1.0" xmlns="http://www.w3.org/2000/svg"
 width="700.000000pt" height="700.000000pt" viewBox="0 0 700.000000 700.000000"
 preserveAspectRatio="xMidYMid meet">
<metadata>
Created by potrace 1.14, written by Peter Selinger 2001-2017
</metadata>
<g transform="translate(0.000000,700.000000) scale(0.100000,-0.100000)"
fill="#000000" stroke="none">
<path d="M1364 5502 c-200 -216 -350 -432 -479 -691 -111 -224 -214 -528 -249
-736 -24 -141 -37 -234 -43 -315 -13 -163 -6 -498 11 -600 3 -14 7 -47 11 -75
11 -88 58 -301 86 -390 20 -66 70 -211 78 -230 5 -11 19 -45 31 -75 106 -266
330 -618 526 -830 22 -25 54 -60 70 -78 l29 -33 209 210 209 209 -53 54 c-94
95 -199 234 -312 414 -94 148 -220 463 -258 644 -22 99 -40 201 -45 250 -4 30
-8 69 -10 85 -5 37 -6 348 -1 390 2 17 7 59 10 95 4 36 9 72 11 80 2 8 6 33
10 55 27 183 122 462 226 663 47 89 152 256 201 316 71 89 94 116 142 166 28
30 57 62 63 71 10 13 -21 48 -195 222 l-207 206 -71 -77z"/>
<path d="M5351 5366 l-203 -203 51 -54 c283 -298 505 -721 585 -1119 21 -107
25 -127 32 -194 3 -34 8 -74 10 -91 5 -42 5 -356 0 -380 -2 -11 -7 -53 -10
-94 -4 -41 -9 -77 -10 -80 -2 -3 -7 -28 -10 -56 -11 -80 -54 -241 -98 -365
-103 -293 -272 -568 -493 -805 l-56 -59 208 -208 208 -208 45 48 c260 277 450
568 589 904 86 209 168 511 187 688 1 14 5 39 8 55 25 128 26 588 2 725 -3 14
-7 48 -11 75 -38 305 -176 702 -353 1017 -36 63 -133 216 -159 248 -6 8 -46
59 -88 114 -42 54 -93 116 -113 139 -84 91 -100 107 -108 107 -5 0 -101 -92
-213 -204z"/>
<path d="M3785 4999 c0 -138 -3 -253 -7 -255 -3 -2 -48 20 -98 51 -50 30 -92
55 -94 55 -1 0 -55 32 -120 70 -64 39 -120 70 -124 70 -5 0 -278 -470 -290
-500 -1 -4 91 -60 205 -125 114 -65 214 -123 221 -128 10 -8 1 -17 -35 -37
-26 -14 -109 -62 -183 -105 -74 -43 -151 -87 -170 -98 -19 -10 -37 -21 -38
-22 -3 -3 14 -34 65 -120 7 -11 16 -27 20 -35 4 -8 43 -78 87 -155 45 -77 87
-153 95 -168 8 -15 19 -27 24 -27 5 0 86 46 180 103 95 56 181 106 192 110 11
4 28 16 38 25 13 11 20 13 25 5 4 -6 7 -122 7 -257 l0 -246 117 0 c65 -1 174
-1 243 -1 69 0 147 0 174 1 l50 0 0 251 c0 138 1 253 4 255 2 3 100 -52 216
-121 117 -69 216 -125 219 -125 8 0 21 20 54 79 11 20 67 118 124 218 57 100
107 189 110 196 4 10 -46 43 -168 113 -262 149 -264 151 -258 157 3 3 97 58
210 122 113 65 209 121 214 125 4 5 -56 121 -135 259 -108 188 -148 250 -159
246 -8 -4 -107 -60 -218 -126 -112 -67 -206 -118 -209 -116 -3 3 -5 118 -5
256 l1 251 -293 0 -292 0 1 -251z"/>
<path d="M2720 2623 c-99 -12 -179 -52 -256 -128 -94 -94 -130 -184 -127 -321
3 -181 117 -338 289 -400 72 -26 211 -27 283 -3 265 91 379 401 236 645 -52
89 -180 181 -278 199 -42 8 -113 12 -147 8z"/>
</g>
</svg>
